PathFileType	4	(X/Y/Z)	G:\マイドライブ\biomec\experimentalData\240725\SJ1.trc
DataRate	CameraRate	NumFrames	NumMarkers	Units	OrigDataRate	OrigDataStartFrame	OrigNumFrames
200.00	200.00	      7	52	mm	200.00	574	      2292
Frame#	Time	handR			wrRI			wrRO			elbRI			elbRO			shRF			shRU			shRB			handL			wrLI			wrLO			elbLI			elbLO			shLF			shLU			shLB			toeR			baRI			baRO			heelR			anRI			anRO			knRI			knRO			troR			toeL			baLI			baLO			heelL			anLI			anLO			knLI			knLO			troL			head			earR			earL			clav			c7			ribR			ribL			xiph			ASISR			ASISL			PSISR			PSISL			t8			t11			L1			L3			LS			COX			
		X1	Y1	Z1	X2	Y2	Z2	X3	Y3	Z3	X4	Y4	Z4	X5	Y5	Z5	X6	Y6	Z6	X7	Y7	Z7	X8	Y8	Z8	X9	Y9	Z9	X10	Y10	Z10	X11	Y11	Z11	X12	Y12	Z12	X13	Y13	Z13	X14	Y14	Z14	X15	Y15	Z15	X16	Y16	Z16	X17	Y17	Z17	X18	Y18	Z18	X19	Y19	Z19	X20	Y20	Z20	X21	Y21	Z21	X22	Y22	Z22	X23	Y23	Z23	X24	Y24	Z24	X25	Y25	Z25	X26	Y26	Z26	X27	Y27	Z27	X28	Y28	Z28	X29	Y29	Z29	X30	Y30	Z30	X31	Y31	Z31	X32	Y32	Z32	X33	Y33	Z33	X34	Y34	Z34	X35	Y35	Z35	X36	Y36	Z36	X37	Y37	Z37	X38	Y38	Z38	X39	Y39	Z39	X40	Y40	Z40	X41	Y41	Z41	X42	Y42	Z42	X43	Y43	Z43	X44	Y44	Z44	X45	Y45	Z45	X46	Y46	Z46	X47	Y47	Z47	X48	Y48	Z48	X49	Y49	Z49	X50	Y50	Z50	X51	Y51	Z51	X52	Y52	Z52	

574	2.865	598.39948	725.24908	1032.97583	559.50732	664.94104	1002.67596	515.41565	709.34088	1039.20532	408.28561	576.56189	1178.20496	463.50565	517.67377	1177.73511	647.62360	676.85388	1368.23450	541.81592	662.01965	1395.60095	602.50287	649.58643	1411.59314	624.42975	1020.14734	1062.07751	596.24176	1093.82031	1039.99915	546.87787	1046.12976	1075.02002	484.31409	1183.49634	1231.87427	553.14008	1231.70776	1230.62903	690.72369	996.08539	1385.24011	656.38770	1030.90332	1433.01367	582.80963	1025.27979	1410.56592	718.16107	739.65668	49.73073	644.78296	799.80444	35.31055	602.49768	680.99817	41.39007	438.12180	797.95746	40.07924	529.06964	818.83228	111.13982	496.00403	728.38818	102.20390	590.10767	826.40955	470.26639	591.26306	720.70386	472.68582	544.26227	713.46790	868.84094	725.04822	1071.91846	51.09956	652.47144	1023.79535	51.28402	629.01990	1136.38684	47.28352	439.89786	1076.55603	45.57817	534.60046	1025.73145	134.54028	511.02649	1116.41443	116.09217	575.36664	977.29321	479.38864	585.63861	1085.34229	495.53857	568.03723	1055.69470	876.12695	855.92731	813.14020	1612.46118	769.21039	737.30450	1461.58655	788.86725	896.26129	1454.69226	696.33521	838.53571	1355.67224	621.56281	843.32587	1477.46790	602.35297	762.24890	1085.57874	622.12164	985.17981	1096.95435	683.76471	847.78308	1202.17578	616.39233	771.47247	951.91913	629.13025	990.77966	974.39001	452.69623	829.45917	1010.92169	464.21045	950.74573	1019.65942	482.24213	873.51532	1290.12903	468.17722	881.04565	1159.21765	469.20270	887.33929	1098.06384	463.53339	887.46936	1046.97192	446.54303	892.35516	1010.63751	411.71909	899.74402	908.22180	
575	2.870	598.15112	726.24060	1032.81580	559.17859	666.06805	1002.51917	515.21674	710.63959	1039.04480	408.25412	577.76117	1178.19006	463.29123	518.93469	1177.80664	647.81177	677.96179	1367.83667	541.86591	663.44708	1395.42029	602.58527	650.85901	1411.25293	624.06238	1020.64636	1061.07227	596.13739	1094.95959	1039.47986	547.06592	1047.28577	1074.63831	484.62720	1184.91895	1231.43469	553.36383	1233.06055	1230.16113	691.10132	997.17444	1384.71790	656.68854	1032.34033	1432.56079	583.25574	1026.47961	1410.09668	718.13794	739.63147	49.67926	644.76001	799.83337	35.31086	602.48889	681.02258	41.37309	438.10303	797.92841	40.10387	529.12903	818.81293	111.19696	496.05008	728.30908	102.30896	590.66766	826.96283	470.09494	592.00989	721.13800	472.73273	544.05121	714.06091	868.88171	724.90393	1071.95569	51.26874	652.26697	1023.93536	51.25667	628.85828	1136.54041	47.16761	439.68332	1076.38989	44.08881	533.76929	1026.07373	133.67139	510.28549	1116.48108	115.22138	575.82782	979.64026	478.92868	584.35895	1086.17065	494.82263	567.46686	1056.25854	875.34473	855.96539	814.35614	1612.16455	769.70642	738.62610	1461.14636	789.33185	897.34167	1454.34277	696.55597	839.87091	1355.23621	621.77423	844.76776	1477.01099	602.33167	763.32434	1085.28369	622.19836	986.26361	1096.33813	683.87689	848.88940	1201.82825	616.05658	772.51550	951.76080	629.29102	991.44440	973.79773	452.43790	830.57562	1010.90082	464.10318	951.87231	1019.32263	482.70303	874.77954	1289.72046	468.23904	882.54559	1158.91846	469.18408	888.70673	1097.77808	463.61539	888.88593	1046.65112	446.25919	893.73608	1010.53461	411.44986	900.39868	907.98242	
576	2.875	597.98590	727.42194	1032.66931	558.67523	667.02728	1002.33234	515.13586	711.45154	1038.80774	407.82584	579.24200	1178.40869	462.78680	520.22791	1177.74231	647.91699	679.26434	1367.48474	541.94043	664.95197	1395.16931	602.38464	652.21899	1411.30115	624.40039	1022.28748	1060.91467	596.24036	1096.06604	1039.01245	547.17871	1048.47424	1074.34009	484.79095	1186.16528	1230.90576	553.48395	1234.24719	1229.46179	691.23425	998.42902	1384.16174	656.90155	1033.54333	1432.06226	583.64368	1027.85828	1409.58643	718.14972	739.73053	49.72113	644.77649	799.85724	35.31161	602.50610	681.08521	41.43694	438.11609	797.90259	40.17821	529.12280	818.77252	111.29237	496.13245	728.23792	102.42097	591.29956	827.44324	469.99472	592.71387	721.48517	472.79831	543.83148	714.80035	868.94879	724.77179	1071.97412	51.43183	652.00562	1023.90924	51.28631	628.63971	1136.72095	47.13068	439.49429	1076.38660	43.18060	533.38373	1026.04016	133.03467	509.64273	1116.42981	114.39362	575.65924	980.45728	478.41354	583.50220	1086.84082	494.26492	567.00391	1056.98181	874.68286	855.96857	815.68103	1611.94629	769.62872	739.67578	1460.96484	789.20319	898.90991	1453.73804	696.78241	841.21674	1354.91663	622.12384	846.08392	1476.53357	602.21063	764.65167	1084.96948	622.33923	987.15967	1095.58301	684.12354	850.35016	1201.42407	615.53137	773.95746	951.41193	628.74274	992.76263	972.89410	452.26132	831.57837	1010.81421	464.07053	952.94250	1018.81732	483.03183	876.29254	1289.37524	468.36829	883.82507	1158.53564	469.09058	890.10199	1097.68384	463.46548	890.17609	1046.45166	446.02399	894.71613	1010.39636	411.15628	900.99274	907.73553	
577	2.880	597.80542	728.41620	1032.47693	558.27539	668.21063	1002.27020	514.65247	712.76801	1038.86694	407.54288	580.44537	1178.51099	462.57623	521.40607	1177.84277	647.92780	680.79791	1367.09497	541.98529	666.22510	1394.94922	602.50287	653.59521	1410.85486	624.43695	1023.36328	1060.28101	596.33368	1097.24121	1038.56946	547.29150	1049.47168	1073.92371	485.02698	1187.47473	1230.49475	554.10205	1235.44812	1229.01917	691.66339	999.55225	1383.78271	657.49371	1035.04932	1431.58240	584.01404	1029.27258	1409.12927	718.14362	739.74866	49.71605	644.77594	799.88757	35.29649	602.49860	681.15082	41.46087	438.09500	797.88800	40.26176	529.13324	818.72723	111.35804	496.21432	728.13892	102.51806	591.94128	827.88757	469.85266	593.63873	722.00452	472.88538	543.62482	715.56226	868.99908	724.67072	1071.99634	51.55804	651.88422	1023.93500	51.30828	628.50476	1136.90076	47.08575	439.32584	1076.23376	42.02282	532.91870	1026.06091	132.40210	509.05539	1116.32922	113.64085	574.03284	980.87634	478.01334	582.53717	1087.45862	493.50293	566.28607	1057.70007	873.77667	856.12219	816.81030	1611.70068	769.78339	740.99213	1460.52625	789.56268	900.04962	1453.57886	697.14661	842.21228	1354.48328	622.50024	847.49225	1476.04846	602.10913	765.70996	1084.74475	622.67755	988.65021	1095.27258	684.51575	851.56421	1200.92566	615.08118	774.62720	951.23663	628.66669	993.30438	972.20105	452.08963	832.62659	1010.73462	463.91580	954.12579	1018.47504	483.12320	877.96790	1289.07214	468.48450	885.40717	1158.23718	469.00012	891.36938	1097.52356	463.38333	891.52649	1046.42554	445.97299	895.76642	1010.23944	410.71143	901.73291	907.48279	
578	2.885	597.47058	729.61334	1032.20520	557.87256	669.16669	1002.19305	514.23126	714.07471	1038.82422	407.26318	581.71515	1178.66382	462.30057	522.81012	1177.91284	647.96277	682.07666	1366.60254	542.07062	667.86646	1394.63330	602.69275	655.04120	1410.22705	624.53259	1024.42505	1059.74854	596.45422	1098.27954	1037.95190	547.35565	1050.64294	1073.48010	485.63507	1188.72754	1230.00818	554.45447	1236.77869	1228.40955	692.39618	1001.21863	1383.43237	657.87561	1036.18591	1431.07141	584.33209	1030.68689	1408.73328	718.12897	739.75574	49.64288	644.79150	799.93762	35.28987	602.52100	681.21393	41.48769	438.08002	797.85065	40.29037	529.16870	818.66864	111.43988	496.27307	728.03210	102.65005	592.58325	828.30792	469.84024	594.70728	722.48291	472.92740	543.29388	716.29816	868.96198	724.57605	1072.00903	51.66882	651.73212	1023.98523	51.33149	628.36725	1137.06567	47.03245	439.13663	1076.07983	40.68682	531.47803	1025.00513	130.88084	508.30774	1116.12976	112.79368	575.30829	982.43536	477.08331	581.55457	1088.21985	492.71091	565.71503	1058.55225	872.95703	856.31372	818.16888	1611.43799	769.97174	742.32330	1460.11487	790.11749	901.30048	1453.45166	697.43909	843.51178	1353.85681	622.81610	848.96735	1475.57104	601.89423	766.92755	1084.47144	622.82861	989.61169	1094.59192	684.70673	853.09753	1200.37183	614.75244	776.10425	951.13446	628.35938	994.53497	971.14502	451.63388	833.86450	1010.78113	463.53937	955.40619	1018.19299	483.39084	879.45508	1288.71497	468.60431	887.00427	1158.04834	469.08533	892.90454	1097.11755	463.10062	892.49164	1046.20361	445.78726	897.09943	1009.98267	410.19159	902.59558	907.23944	
579	2.890	597.12415	730.83942	1031.95129	557.28131	670.45190	1001.92761	514.08508	714.94324	1038.57153	406.77963	583.19299	1178.77795	461.86401	524.06219	1178.06543	648.06244	683.08429	1366.24597	542.14386	669.48749	1394.32605	602.83942	656.65198	1409.89636	624.75507	1025.65771	1059.20667	596.46045	1099.54041	1037.39148	547.51263	1051.87793	1072.91711	486.23599	1189.99255	1229.46362	555.03717	1238.00330	1227.76575	693.11011	1002.58362	1382.86938	658.55640	1037.70728	1430.48792	584.93738	1032.01086	1408.18701	718.15198	739.81171	49.66546	644.76422	799.95404	35.31184	602.52301	681.26929	41.50280	438.09283	797.80835	40.38757	529.17426	818.60529	111.56418	496.33951	727.89618	102.75448	593.36133	828.80951	469.96924	595.68481	722.81122	472.94247	542.79346	716.93671	868.92383	724.48248	1072.01746	51.74693	651.58466	1023.98358	51.36837	628.73480	1137.42578	47.70675	439.02231	1076.05713	39.79745	531.05505	1024.99719	130.40637	507.87869	1116.14404	112.06189	575.47546	983.29346	476.38977	580.69788	1088.83398	492.07553	565.13727	1059.55481	872.15948	856.37994	819.37903	1611.13013	770.31366	743.52563	1459.77637	790.81134	902.47534	1452.96777	697.63855	844.77277	1353.35681	623.12885	850.39209	1475.16614	601.74292	768.01007	1084.24817	623.08044	990.78333	1093.90918	684.95459	854.53583	1199.78381	614.27399	777.29462	950.80945	628.23303	996.90692	970.06323	451.14993	835.04749	1010.59875	463.25247	956.45453	1017.84338	483.76419	880.94635	1288.31860	468.65955	888.51697	1157.79224	468.94675	894.37488	1096.92590	463.04401	894.15210	1045.76660	445.30841	898.30786	1009.72504	409.82620	903.29248	906.99127	
580	2.895	596.67383	731.91669	1031.68799	556.78894	671.50861	1001.94202	513.25153	716.31226	1038.60474	406.55301	584.21527	1178.89441	461.55920	525.39502	1178.18066	648.23419	684.54004	1365.92480	542.30566	671.02972	1394.05408	602.68414	657.98035	1409.93530	624.82727	1026.60547	1058.47815	596.46948	1100.53235	1036.72131	547.67975	1052.93286	1072.40588	486.85516	1191.40857	1228.84924	555.26184	1239.57800	1226.93494	693.38049	1003.74884	1382.01978	659.10773	1039.09668	1429.82751	585.54767	1033.62903	1407.58997	718.13989	739.83087	49.63217	644.74341	799.98547	35.30787	602.53735	681.31677	41.51913	438.08536	797.75085	40.47678	529.19305	818.52271	111.69559	495.90787	727.36615	103.13107	594.19366	829.18195	469.84842	596.78241	723.15369	472.91016	542.23840	717.64917	868.88019	724.42584	1072.03357	51.80995	651.48785	1024.00110	51.44584	628.40845	1137.72559	47.72810	438.93015	1076.22363	39.32424	530.70471	1025.05505	129.82445	507.50705	1116.12207	111.22009	573.13434	982.92834	476.28076	579.90155	1089.40186	491.47879	564.36951	1061.45886	872.08600	856.47260	820.68384	1610.77856	770.76526	744.89435	1459.41260	791.09100	903.49207	1452.55396	698.00214	846.16370	1352.89087	623.52155	851.79071	1474.66187	601.54932	769.24213	1083.92261	622.97430	991.89636	1093.06714	685.13788	855.80780	1199.14319	613.72717	778.45197	950.50671	627.75543	997.95367	969.27350	450.77408	836.16687	1010.36212	463.02505	957.67023	1017.36053	484.20758	882.45416	1287.83533	468.74365	890.03778	1157.46619	468.77829	895.90430	1096.73730	462.48865	895.30255	1045.65613	444.86884	899.53943	1009.46246	409.25620	904.07904	906.76459	
